# xmcd CD database file
#
# Track frame offsets:
#	150
#	20077
#	31660
#	43850
#	63467
#	75662
#	90050
#	101032
#	116005
#	129987
#	140850
#	150345
#	156092
#	161150
#	169737
#	194600
#
# Disc length: 2833 seconds
#
# Revision: 0
# Processed by: cddbd v1.5.2PL0 Copyright (c) Steve Scherf et al.
# Submitted via: CDex 1.70beta2
#
DISCID=ce0b0f10
DTITLE=Kiyoto Fujiwara - Gargantua
DYEAR=2000
DGENRE=Jazz
TTITLE0=Amazing Grace
TTITLE1=Siciliana
TTITLE2=Quizas Quizas Quizas
TTITLE3=The Little Train
TTITLE4=Folk Forms No 1
TTITLE5=Aria for I pagliacci
TTITLE6=Kindersong
TTITLE7=Aunt and Uncle
TTITLE8=Yellow Submarine
TTITLE9=Tornando
TTITLE10=Eyes of a Smiling Baby
TTITLE11=Triptyque Chinon 1 Nassance
TTITLE12=2 L'enfant de Gargantua
TTITLE13=3 La nuit de Seuilly
TTITLE14=Song of the Birds
TTITLE15=Come Sunday
EXTD=YEAR: 2000
EXTT0=
EXTT1=
EXTT2=
EXTT3=
EXTT4=
EXTT5=
EXTT6=
EXTT7=
EXTT8=
EXTT9=
EXTT10=
EXTT11=
EXTT12=
EXTT13=
EXTT14=
EXTT15=
PLAYORDER=
